<?xml version="1.0" encoding="UTF-8" standalone="no"?>
<!-- Created with Inkscape (http://www.inkscape.org/) -->

<svg
   xmlns:dc="http://purl.org/dc/elements/1.1/"
   xmlns:cc="http://creativecommons.org/ns#"
   xmlns:rdf="http://www.w3.org/1999/02/22-rdf-syntax-ns#"
   xmlns:svg="http://www.w3.org/2000/svg"
   xmlns="http://www.w3.org/2000/svg"
   xmlns:sodipodi="http://sodipodi.sourceforge.net/DTD/sodipodi-0.dtd"
   xmlns:inkscape="http://www.inkscape.org/namespaces/inkscape"
   width="219.80264"
   height="280.43286"
   id="svg3219"
   version="1.1"
   inkscape:version="0.48.4 r9939"
   sodipodi:docname="alcohol_into_the_trash.svg">
  <defs
     id="defs3221">
    <linearGradient
       id="linearGradient4461">
      <stop
         id="stop4463"
         style="stop-color:#99aab4"
         offset="0" />
      <stop
         id="stop4465"
         style="stop-color:#d9dfe3"
         offset="1" />
    </linearGradient>
    <linearGradient
       id="linearGradient4003">
      <stop
         id="stop4005"
         style="stop-color:#a4a569"
         offset="0" />
      <stop
         id="stop4011"
         style="stop-color:#9f7f25"
         offset=".45275" />
      <stop
         id="stop4013"
         style="stop-color:#866e24"
         offset=".76220" />
      <stop
         id="stop4007"
         style="stop-color:#775c15"
         offset="1" />
    </linearGradient>
  </defs>
  <sodipodi:namedview
     id="base"
     pagecolor="#ffffff"
     bordercolor="#666666"
     borderopacity="1.0"
     inkscape:pageopacity="0.0"
     inkscape:pageshadow="2"
     inkscape:zoom="0.49497475"
     inkscape:cx="53.566386"
     inkscape:cy="158.51205"
     inkscape:document-units="px"
     inkscape:current-layer="layer1"
     showgrid="false"
     fit-margin-top="0"
     fit-margin-left="0"
     fit-margin-right="0"
     fit-margin-bottom="0"
     inkscape:window-width="1280"
     inkscape:window-height="749"
     inkscape:window-x="0"
     inkscape:window-y="26"
     inkscape:window-maximized="1" />
  <metadata
     id="metadata3224">
    <rdf:RDF>
      <cc:Work
         rdf:about="">
        <dc:format>image/svg+xml</dc:format>
        <dc:type
           rdf:resource="http://purl.org/dc/dcmitype/StillImage" />
        <dc:title></dc:title>
      </cc:Work>
    </rdf:RDF>
  </metadata>
  <g
     inkscape:label="Layer 1"
     inkscape:groupmode="layer"
     id="layer1"
     transform="translate(-321.43361,-240.7204)">
    <g
       id="g3575">
      <g
         inkscape:label="Layer 1"
         id="layer1-56"
         transform="matrix(0.15683516,-0.15683516,0.15683516,0.15683516,273.25925,400.6609)">
        <g
           id="g3734">
          <path
             inkscape:connector-curvature="0"
             id="path3155"
             d="m 557.22999,74.353257 c -1.52548,0.013 -3.00001,0.0849 -4.39768,0.19307 -2.6247,0.20304 -4.9889,0.55678 -6.88612,1.0297 -2.2766,0.56754 -3.89821,1.30631 -4.5693,2.12376 -0.22371,0.27247 -0.34323,0.54752 -0.34323,0.83663 0.0377,0.59538 -0.18498,1.25067 -0.25743,1.75907 0,0.75505 0.46893,1.48435 1.26567,2.14521 -1.33627,3.74791 -2.59371,6.90174 -1.73761,10.38281 0.24063,0.97849 1.62761,1.34369 1.88778,2.31683 0.81525,3.04949 -0.99486,7.977603 -1.43729,9.374563 -0.49505,1.56364 -0.94355,3.14529 -1.33003,4.74092 -0.3865,1.59562 -0.71945,3.19904 -1.00825,4.78381 -0.28875,1.58478 -0.54902,3.16698 -0.75082,4.69801 -0.20184,1.53103 -0.34624,3.02773 -0.47195,4.46204 -0.1257,1.4343 -0.23993,2.8026 -0.30033,4.09735 -0.0604,1.29474 -0.0799,2.51319 -0.0858,3.6254 0,8.5726 2.69133,12.72092 1.26568,18.87784 -2.5041,10.8146 -15.87541,16.71135 -16.23924,30.03293 -0.36422,13.32158 -0.30366,24.87773 -0.30033,36.4042 0.003,11.52647 -0.0497,23.01758 -0.10726,34.36625 -0.0574,11.34799 -0.1181,22.56314 -0.15016,33.50817 -0.0161,5.47238 -0.27178,10.79864 -0.0214,16.19633 0.24405,5.26239 8.6e-4,0.008 1.48019,15.74584 0,7.92701 12.32848,14.49027 29.71115,15.61712 0.54136,0.0351 1.10089,0.0614 1.65181,0.0858 0.0359,0.002 0.0713,-0.002 0.10726,0 0.57293,0.0246 1.13343,0.0515 1.71617,0.0644 0.0217,5e-4 0.0426,-5e-4 0.0643,0 0.59836,0.0127 1.2153,0.0215 1.82343,0.0215 0.61515,0 1.21837,-0.008 1.82343,-0.0215 1.20325,-0.0273 2.38087,-0.0703 3.5396,-0.15017 17.36661,-1.13045 29.66824,-7.69304 29.66824,-15.61712 1.41247,-16.77794 1.18024,-11.16916 1.41584,-16.77554 0.23497,-5.59175 10e-6,-11.20091 0,-16.79699 -4e-5,-11.20039 -5e-5,-22.39083 0,-33.59397 4e-5,-11.20314 -5e-5,-22.41298 0,-33.61543 5e-5,-11.20246 -0.0111,-22.38809 -0.4505,-35.56757 -0.24706,-7.40995 -4.57886,-12.54382 -8.7739,-17.52636 -1.79568,-3.56345 -4.02114,-6.8986 -6.6716,-9.7607 -0.35285,-0.84751 -0.66798,-1.70873 -0.87954,-2.61716 -1.43568,-6.16502 1.28713,-10.30524 1.28713,-18.87784 -0.0476,-1.08455 -0.13982,-2.2777 -0.23598,-3.56105 -0.0962,-1.28335 -0.2127,-2.66188 -0.36468,-4.09735 -0.15199,-1.43547 -0.32115,-2.94271 -0.5363,-4.48348 -0.21516,-1.54078 -0.44368,-3.12007 -0.72938,-4.71946 -0.28566,-1.5994 -0.62326,-3.21545 -0.98679,-4.82673 -0.36355,-1.61134 -0.75258,-3.20727 -1.20132,-4.78381 -0.39757,-1.39669 -2.13996,-6.323533 -1.30858,-9.353113 0.2612,-0.95186 1.5877,-1.31493 1.82343,-2.27393 0.85712,-3.48601 -0.36081,-6.64791 -1.69471,-10.40426 0.79129,-0.65731 1.26567,-1.37215 1.26567,-2.12376 -0.11561,-0.6433 -0.22362,-1.19871 -0.27888,-1.75907 0,-1.89245 -5.0014,-3.47245 -11.88446,-3.99009 -0.48078,-0.0384 -0.95988,-0.0803 -1.45874,-0.10726 -0.0279,-0.001 -0.0579,10e-4 -0.0858,0 -0.007,-3.6e-4 -0.0145,3.6e-4 -0.0215,0 -0.16939,-0.009 -0.34359,-0.0139 -0.51485,-0.0214 -0.34505,-0.0151 -0.69902,-0.0335 -1.05115,-0.0429 -0.0142,-3.6e-4 -0.0287,3.5e-4 -0.0429,0 -0.54666,-0.0143 -1.11194,-0.0215 -1.67326,-0.0215 -0.1895,0 -0.36977,-0.002 -0.55775,0 z"
             style="opacity:0.95814;fill:#000000" />
          <g
             inkscape:label="Layer 1"
             id="layer1-7"
             transform="matrix(0.60380952,0,0,0.60380952,330.71428,-117.66234)" />
        </g>
      </g>
      <g
         id="layer1-5"
         transform="translate(65.205853,-9.5776857)">
        <g
           id="g3640"
           transform="translate(1176.6,31.113)">
          <path
             inkscape:connector-curvature="0"
             id="path2832"
             style="fill:#000000;stroke:#000000;stroke-width:3"
             d="m -756.6,271.01 a 16.668,16.668 0 1 1 -33.335,0 16.668,16.668 0 1 1 33.335,0 z" />
          <path
             inkscape:connector-curvature="0"
             id="path3610"
             style="fill:#000000;stroke:#000000;stroke-width:1px"
             d="m -750,293.26 -103.21,0.89286 c -4.3965,0.038 -3.5754,5.0714 0.17857,5.7143 l 58.393,10 c 5.0785,1.0358 8.7881,4.0272 10.536,9.8214 l 9.6428,26.071 44.46,-1.42 c 3.7901,0 2.7889,-1.5931 1.6071,-4.1072 l -21.61,-46.96 z" />
          <path
             inkscape:connector-curvature="0"
             id="path3614"
             style="fill:#000000;stroke:#000000;stroke-width:1px"
             d="m -771.07,349.86 h 40.893 c 1.7061,0.58881 2.3948,1.8558 2.6786,3.3929 l -6.4286,108.75 c -0.82774,3.0892 -7.7388,3.7187 -8.3929,-0.71429 l -11.25,-76.25 c 0,-3.6999 -2.7788,-4.5971 -4.4643,-0.71428 l -34.107,78.571 c -1.809,4.1673 -9.7091,3.5174 -8.2143,-2.1429 l 29.286,-110.89 z" />
          <path
             inkscape:connector-curvature="0"
             id="path3618"
             style="fill:none;stroke:#000000;stroke-width:5;stroke-linecap:round"
             d="m -891.43,354.33 h 89.643" />
          <path
             inkscape:connector-curvature="0"
             id="path3620"
             style="fill:none;stroke:#000000;stroke-width:5"
             d="m -807.32,356.29 -13.393,102.5 h -49.643 l -15.536,-103.04" />
          <path
             inkscape:connector-curvature="0"
             id="path3622"
             style="fill:none;stroke:#000000;stroke-width:5"
             d="M -845.89,458.43 V 356.11" />
          <path
             inkscape:connector-curvature="0"
             id="path3624"
             style="fill:none;stroke:#000000;stroke-width:5"
             d="m -857.5,458.97 -9.4643,-104.11" />
          <path
             inkscape:connector-curvature="0"
             id="path3626"
             style="fill:none;stroke:#000000;stroke-width:5"
             d="m -834.11,458.43 7.3214,-103.04" />
          <path
             inkscape:connector-curvature="0"
             id="path3628"
             style="fill:none;stroke:#000000;stroke-width:5"
             d="m -873.39,437.36 h 55.179" />
          <path
             inkscape:connector-curvature="0"
             id="path3630"
             style="fill:none;stroke:#000000;stroke-width:5"
             d="m -875.54,421.11 h 58.75" />
          <path
             inkscape:connector-curvature="0"
             id="path3632"
             style="fill:none;stroke:#000000;stroke-width:5"
             d="m -878.21,404.68 h 63.214" />
          <path
             inkscape:connector-curvature="0"
             id="path3634"
             style="fill:none;stroke:#000000;stroke-width:5"
             d="m -880.36,388.61 h 67.321" />
          <path
             inkscape:connector-curvature="0"
             id="path3636"
             style="fill:none;stroke:#000000;stroke-width:5"
             d="m -882.86,373.26 h 71.964" />
        </g>
      </g>
    </g>
  </g>
</svg>
